<svg xmlns="http://www.w3.org/2000/svg" viewBox="0 -0.5 16 16" shape-rendering="crispEdges">
<metadata>Made with Pixels to Svg https://codepen.io/shshaw/pen/XbxvNj</metadata>
<path stroke="#df904f" d="M3 1h1M11 1h1M2 2h1M4 2h1M9 2h2M5 3h1M0 4h1M13 4h1M13 5h1M0 7h2M13 7h1M0 8h1M13 8h1M1 9h1M4 11h1M10 11h1M9 12h1M6 13h1M7 14h1" />
<path stroke="#de904e" d="M4 1h1M8 4h1M0 5h1" />
<path stroke="#ffe9ce" d="M5 1h1M2 8h1M11 11h1" />
<path stroke="#ffe8ce" d="M6 1h1M10 3h1M15 4h1M14 7h1M11 12h1M10 13h1" />
<path stroke="#df914f" d="M10 1h1M3 2h1M9 3h1M1 4h1M1 6h1M1 8h1M12 9h1M8 13h1" />
<path stroke="#fee9ce" d="M12 1h1" />
<path stroke="#ffe8cf" d="M5 2h1M12 2h2M4 3h1M7 3h1M11 3h1M13 3h2M7 4h1M9 4h1M14 4h1M2 5h1M14 5h1M2 7h1M14 8h1M13 9h2M4 10h1M5 11h1M12 11h1M6 12h1M7 13h1M9 13h1M8 14h1M8 15h1" />
<path stroke="#fee8cf" d="M6 2h1M15 5h1M2 6h1M14 6h1M3 9h1M12 10h2M10 12h1" />
<path stroke="#de904f" d="M11 2h1M2 3h1M6 4h1M1 5h1M2 9h1M3 10h1M3 11h1M5 12h1M5 13h1M6 14h1" />
<path stroke="#df904e" d="M1 3h1M4 12h1M7 15h1" />
<path stroke="#ffe9cf" d="M3 3h1M2 4h1M7 5h1M15 7h1M9 14h1" />
<path stroke="#fee9cf" d="M6 3h1" />
<path stroke="#df914e" d="M8 3h1M13 6h1" />
<path stroke="#af2128" d="M12 3h1M9 5h1M6 6h1M6 7h1M3 8h1" />
<path stroke="#ae2129" d="M3 4h1" />
<path stroke="#af2028" d="M4 4h1M3 5h1M5 5h1M8 5h1M10 5h1M3 6h1M5 6h1M7 6h1M11 6h1M3 7h3M9 7h3M5 8h1M9 8h1M12 8h1M4 9h1M6 9h1M9 9h1M5 10h2M8 10h2M7 12h2" />
<path stroke="#ae2128" d="M5 4h1M11 5h1M9 6h2M5 9h1" />
<path stroke="#af2029" d="M10 4h1M12 4h1M4 5h1M12 6h1M8 7h1M7 8h2M10 8h1M7 10h1M6 11h1M8 11h1" />
<path stroke="#ae2028" d="M11 4h1M6 5h1M12 5h1M8 6h1M7 7h1M12 7h1M4 8h1M11 8h1M7 9h1M11 9h1M10 10h1M7 11h1M9 11h1" />
<path stroke="#de914f" d="M0 6h1M11 10h1" />
<path stroke="#af2129" d="M4 6h1M10 9h1" />
<path stroke="#fee8ce" d="M15 6h1" />
<path stroke="#ae2029" d="M6 8h1M8 9h1" />
<path stroke="#de914e" d="M2 10h1" />
</svg>